<?xml version="1.0" standalone="no"?>
<!DOCTYPE svg PUBLIC "-//W3C//DTD SVG 20010904//EN"
 "http://www.w3.org/TR/2001/REC-SVG-20010904/DTD/svg10.dtd">
<svg version="1.0" xmlns="http://www.w3.org/2000/svg"
 width="100.000000pt" height="100.000000pt" viewBox="0 0 100.000000 100.000000"
 preserveAspectRatio="xMidYMid meet">
<metadata>
Created by potrace 1.15, written by Peter Selinger 2001-2017
</metadata>
<g transform="translate(0.000000,100.000000) scale(0.100000,-0.100000)"
fill="#000000" stroke="none">
<path d="M340 961 c-145 -47 -247 -131 -303 -248 -30 -64 -32 -75 -32 -178 0
-98 3 -116 27 -167 14 -31 44 -76 67 -100 l40 -44 -18 -31 c-11 -16 -42 -49
-70 -73 -65 -55 -69 -84 -11 -101 51 -15 151 1 265 43 71 26 92 29 185 28 71
0 123 5 160 16 140 41 253 132 311 250 32 65 34 74 34 179 0 104 -2 113 -33
178 -58 118 -172 210 -311 251 -75 22 -239 21 -311 -3z m313 -52 c121 -40 216
-122 265 -227 23 -49 27 -70 27 -147 0 -76 -4 -99 -26 -146 -50 -106 -145
-187 -269 -229 -51 -17 -84 -21 -169 -19 -97 1 -115 -2 -211 -34 -116 -39
-190 -54 -190 -39 0 5 15 21 34 36 19 14 46 49 60 77 l26 52 -44 47 c-25 26
-57 72 -73 101 -25 49 -28 64 -28 154 0 119 19 168 99 253 93 99 194 141 344
141 68 1 109 -4 155 -20z"/>
<path d="M470 455 l0 -145 35 0 35 0 0 145 0 145 -35 0 -35 0 0 -145z"/>
</g>
</svg>
