<?xml version="1.0" standalone="no"?>
<!DOCTYPE svg PUBLIC "-//W3C//DTD SVG 20010904//EN"
 "http://www.w3.org/TR/2001/REC-SVG-20010904/DTD/svg10.dtd">
<svg version="1.0" xmlns="http://www.w3.org/2000/svg"
 width="100.000000pt" height="100.000000pt" viewBox="0 0 100.000000 100.000000"
 preserveAspectRatio="xMidYMid meet">
<metadata>
Created by potrace 1.15, written by Peter Selinger 2001-2017
</metadata>
<g transform="translate(0.000000,100.000000) scale(0.100000,-0.100000)"
fill="#000000" stroke="none">
<path d="M805 939 l-27 -22 69 -69 68 -69 23 26 c71 83 -46 202 -133 134z"/>
<path d="M413 548 l-332 -333 -21 -79 c-14 -49 -18 -82 -12 -88 6 -6 38 -2 88
11 l78 20 335 335 c268 268 333 338 323 348 -10 10 -79 -54 -342 -317 l-330
-330 -42 43 -43 42 329 329 c291 291 344 351 308 351 -4 0 -157 -150 -339
-332z"/>
</g>
</svg>
