<?xml version="1.0" standalone="no"?>
<!DOCTYPE svg PUBLIC "-//W3C//DTD SVG 20010904//EN"
 "http://www.w3.org/TR/2001/REC-SVG-20010904/DTD/svg10.dtd">
<svg version="1.0" xmlns="http://www.w3.org/2000/svg"
 width="100.000000pt" height="100.000000pt" viewBox="0 0 100.000000 100.000000"
 preserveAspectRatio="xMidYMid meet">
<metadata>
Created by potrace 1.15, written by Peter Selinger 2001-2017
</metadata>
<g transform="translate(0.000000,100.000000) scale(0.100000,-0.100000)"
fill="#000000" stroke="none">
<path d="M213 908 c-17 -22 -195 -743 -191 -774 l3 -29 78 -3 c46 -2 84 2 92
8 7 6 20 51 30 100 l17 90 78 0 77 0 18 -88 c9 -48 22 -93 27 -99 7 -9 38 -13
89 -13 61 0 80 3 87 16 8 15 11 15 33 0 20 -13 52 -15 174 -13 l150 2 3 190
c2 181 1 192 -20 234 -13 25 -35 53 -49 64 -61 44 -179 40 -272 -10 -70 -37
-75 -69 -21 -124 24 -25 47 -39 63 -39 21 0 18 -4 -19 -22 -27 -14 -51 -35
-61 -54 -15 -31 -16 -29 -89 260 -40 160 -78 297 -83 304 -6 8 -41 12 -107 12
-66 0 -101 -4 -107 -12z m266 -391 c50 -200 91 -366 91 -370 0 -4 -20 -7 -45
-7 -25 0 -45 2 -45 4 0 5 -27 139 -35 173 -5 22 -9 23 -125 23 -116 0 -120 -1
-125 -22 -8 -35 -35 -169 -35 -174 0 -2 -20 -4 -45 -4 -25 0 -45 3 -45 7 0 4
41 170 91 370 l92 363 67 0 67 0 92 -363z m397 38 c42 -27 55 -75 61 -241 7
-170 6 -174 -49 -174 -21 0 -28 5 -28 20 0 24 1 24 -43 5 -48 -20 -117 -19
-146 1 -34 24 -52 75 -41 114 18 64 53 85 163 95 l67 7 0 37 c0 57 -22 81 -76
81 -25 0 -59 -7 -76 -16 -29 -15 -32 -15 -55 8 l-24 25 25 17 c65 42 173 52
222 21z"/>
<path d="M267 631 c-26 -93 -47 -174 -47 -180 0 -7 33 -11 100 -11 67 0 100 4
100 11 0 22 -94 349 -100 349 -4 0 -28 -76 -53 -169z"/>
<path d="M698 309 c-21 -12 -25 -78 -6 -97 31 -31 134 -3 157 42 31 64 29 66
-56 66 -43 0 -86 -5 -95 -11z"/>
</g>
</svg>
