<?xml version="1.0" standalone="no"?>
<!DOCTYPE svg PUBLIC "-//W3C//DTD SVG 20010904//EN"
 "http://www.w3.org/TR/2001/REC-SVG-20010904/DTD/svg10.dtd">
<svg version="1.0" xmlns="http://www.w3.org/2000/svg"
 width="250.000000pt" height="250.000000pt" viewBox="0 0 250.000000 250.000000"
 preserveAspectRatio="xMidYMid meet">
<metadata>
Created by potrace 1.15, written by Peter Selinger 2001-2017
</metadata>
<g transform="translate(0.000000,250.000000) scale(0.100000,-0.100000)"
fill="#000000" stroke="none">
<path d="M182 2283 c-18 -9 -43 -30 -55 -47 l-22 -31 0 -955 0 -955 22 -31
c48 -68 -19 -64 1123 -64 1142 0 1075 -4 1123 64 l22 31 3 843 c3 934 6 887
-62 935 l-31 22 -705 5 -705 5 -54 78 c-82 121 -70 117 -371 117 -214 0 -260
-3 -288 -17z m535 -105 c11 -13 39 -51 62 -85 23 -35 55 -70 71 -78 25 -13
123 -15 721 -15 795 0 729 9 729 -94 l0 -61 -1050 0 -1050 0 0 159 c0 134 3
162 17 178 15 16 36 18 248 18 227 0 232 0 252 -22z m1565 -445 c17 -15 18
-50 18 -706 0 -628 -1 -692 -17 -709 -15 -17 -60 -18 -1031 -18 -931 0 -1017
1 -1034 17 -17 15 -18 50 -18 706 0 628 1 692 17 709 15 17 60 18 1031 18 931
0 1017 -1 1034 -17z"/>
</g>
</svg>
