<?xml version="1.0" standalone="no"?>
<!DOCTYPE svg PUBLIC "-//W3C//DTD SVG 20010904//EN"
 "http://www.w3.org/TR/2001/REC-SVG-20010904/DTD/svg10.dtd">
<svg version="1.0" xmlns="http://www.w3.org/2000/svg"
 width="100.000000pt" height="100.000000pt" viewBox="0 0 100.000000 100.000000"
 preserveAspectRatio="xMidYMid meet">
<metadata>
Created by potrace 1.15, written by Peter Selinger 2001-2017
</metadata>
<g transform="translate(0.000000,100.000000) scale(0.100000,-0.100000)"
fill="#000000" stroke="none">
<path d="M76 882 c-15 -17 -16 -56 -14 -398 l3 -379 314 -3 314 -2 -18 20
c-17 19 -30 20 -297 20 l-278 0 0 290 0 290 400 0 400 0 0 -150 c0 -143 1
-150 20 -150 19 0 20 7 20 223 0 204 -2 225 -18 240 -17 15 -61 17 -424 17
-381 0 -406 -1 -422 -18z m822 -74 l3 -48 -400 0 -401 0 0 43 c0 24 3 47 7 50
4 4 182 6 397 5 l391 -3 3 -47z"/>
<path d="M300 580 c0 -19 7 -20 250 -20 243 0 250 1 250 20 0 19 -7 20 -250
20 -243 0 -250 -1 -250 -20z"/>
<path d="M300 440 c0 -19 7 -20 200 -20 193 0 200 1 200 20 0 19 -7 20 -200
20 -193 0 -200 -1 -200 -20z"/>
<path d="M760 291 l0 -90 -51 -3 -51 -3 86 -98 85 -97 87 97 87 98 -52 3 -51
3 0 90 0 89 -70 0 -70 0 0 -89z m100 -40 c0 -88 0 -90 25 -93 25 -3 25 -3 -15
-48 l-40 -45 -40 45 c-40 45 -40 45 -15 48 25 3 25 5 25 93 l0 89 30 0 30 0 0
-89z"/>
<path d="M300 300 c0 -19 7 -20 200 -20 193 0 200 1 200 20 0 19 -7 20 -200
20 -193 0 -200 -1 -200 -20z"/>
</g>
</svg>
