<?xml version="1.0" standalone="no"?>
<!DOCTYPE svg PUBLIC "-//W3C//DTD SVG 20010904//EN"
 "http://www.w3.org/TR/2001/REC-SVG-20010904/DTD/svg10.dtd">
<svg version="1.0" xmlns="http://www.w3.org/2000/svg"
 width="250.000000pt" height="250.000000pt" viewBox="0 0 250.000000 250.000000"
 preserveAspectRatio="xMidYMid meet">
<metadata>
Created by potrace 1.15, written by Peter Selinger 2001-2017
</metadata>
<g transform="translate(0.000000,250.000000) scale(0.100000,-0.100000)"
fill="#000000" stroke="none">
<path d="M282 2283 c-18 -9 -43 -30 -55 -47 l-22 -31 0 -955 0 -955 22 -31
c48 -67 -8 -64 1023 -64 1031 0 975 -3 1023 64 l22 31 3 785 2 784 -218 218
-218 218 -774 0 c-693 0 -778 -2 -808 -17z m320 -410 c3 -321 3 -329 25 -359
46 -65 38 -64 598 -64 560 0 552 -1 598 64 21 30 22 39 25 340 l3 310 174
-174 175 -175 0 -739 c0 -674 -1 -741 -17 -758 -14 -16 -33 -18 -149 -18
l-133 0 -3 402 c-3 399 -3 403 -25 434 -47 65 -35 64 -623 64 -588 0 -576 1
-623 -64 -22 -31 -22 -35 -25 -433 l-3 -403 -131 0 c-108 0 -135 3 -150 17
-17 15 -18 57 -18 931 0 838 1 917 17 934 14 16 33 18 149 18 l133 0 3 -327z
m1148 20 c0 -271 -2 -309 -17 -325 -15 -17 -44 -18 -506 -18 -442 0 -492 2
-509 17 -17 15 -18 38 -18 325 l0 308 525 0 525 0 0 -307z m32 -810 c17 -15
18 -41 18 -400 l0 -383 -550 0 -550 0 0 382 c0 341 2 383 17 400 15 17 45 18
531 18 466 0 517 -2 534 -17z"/>
</g>
</svg>
