<?xml version="1.0" standalone="no"?>
<!DOCTYPE svg PUBLIC "-//W3C//DTD SVG 20010904//EN"
 "http://www.w3.org/TR/2001/REC-SVG-20010904/DTD/svg10.dtd">
<svg version="1.0" xmlns="http://www.w3.org/2000/svg"
 width="250.000000pt" height="250.000000pt" viewBox="0 0 250.000000 250.000000"
 preserveAspectRatio="xMidYMid meet">
<metadata>
Created by potrace 1.15, written by Peter Selinger 2001-2017
</metadata>
<g transform="translate(0.000000,250.000000) scale(0.100000,-0.100000)"
fill="#000000" stroke="none">
<path d="M1076 2384 c-9 -8 -16 -18 -16 -22 0 -4 -11 -72 -25 -152 -14 -80
-25 -146 -25 -146 0 -1 -12 -5 -27 -9 -16 -3 -54 -18 -85 -32 l-57 -25 -123
87 c-68 49 -131 90 -141 93 -27 7 -247 -213 -247 -246 0 -14 35 -73 80 -138
44 -63 83 -120 86 -127 3 -8 -9 -42 -26 -78 -16 -35 -30 -70 -30 -77 0 -7 -10
-17 -22 -22 -18 -7 -258 -50 -281 -50 -3 0 -13 -7 -21 -16 -24 -23 -24 -325 0
-345 9 -7 81 -25 162 -39 97 -17 148 -30 153 -40 36 -68 70 -160 63 -171 -4
-7 -45 -65 -91 -128 -46 -63 -83 -122 -83 -131 0 -26 222 -240 249 -240 13 0
73 35 137 80 63 44 120 83 128 86 8 3 31 -3 53 -14 21 -11 57 -25 81 -32 23
-7 42 -14 42 -14 0 -1 11 -66 25 -146 14 -80 25 -148 25 -152 0 -4 7 -14 16
-22 23 -24 325 -24 345 0 7 9 25 83 40 166 15 82 28 150 30 151 30 19 172 66
181 61 7 -4 63 -42 125 -86 62 -43 123 -78 135 -78 27 0 248 215 248 241 0 8
-26 51 -58 95 -32 43 -73 100 -91 126 l-33 47 33 85 c19 48 41 88 49 90 8 2
74 14 145 26 72 12 140 29 153 36 21 14 22 19 22 174 0 131 -3 161 -16 174 -8
9 -18 16 -22 16 -15 0 -295 49 -297 52 -16 23 -65 170 -59 180 4 7 43 63 86
124 44 64 78 122 78 136 0 17 -32 56 -113 136 -62 61 -119 112 -128 112 -8 0
-51 -26 -94 -58 -44 -32 -101 -73 -127 -91 l-46 -33 -84 33 c-45 19 -85 37
-88 41 -3 4 -16 70 -29 145 -13 76 -29 148 -37 161 -14 21 -19 22 -174 22
-131 0 -161 -3 -174 -16z m320 -818 c73 -33 146 -110 175 -183 31 -80 31 -186
0 -266 -61 -156 -247 -248 -407 -202 -112 32 -189 98 -236 202 -31 68 -31 198
0 266 45 100 131 176 231 204 66 19 170 10 237 -21z"/>
</g>
</svg>
